# xmcd CD database file
#
# Track frame offsets:
#	150
#	3105
#	35128
#	56813
#	74270
#	93753
#	111880
#	126514
#	143366
#	166922
#	192417
#	209937
#	229475
#	251708
#	278216
#	299458
#	318455
#	335777
#
# Disc length: 4734 seconds
#
# Revision: 0
# Processed by: cddbd v1.4PL0 Copyright (c) Steve Scherf et al.
# Submitted via: Feurio! 1.63 - http://www.feurio.com
#
DISCID=21127c12
DTITLE=Tha Dogg Pound dpgc - The Remix
DYEAR=2003
DGENRE=Rap
TTITLE0=Intro
TTITLE1=Let Me Ride (funk Rmx)
TTITLE2=Gin and juice (laid back Rmx)
TTITLE3=Whats Love Go To Di With It
TTITLE4=Regulate (g-funk Rmx)
TTITLE5=U Better Recognize (g-funk Rmx)
TTITLE6=So Many Ways (bad boy Rmx)
TTITLE7=This DJ (warren G rmx)
TTITLE8=Do You See
TTITLE9=Doggy Dogg World (remix)
TTITLE10=Just Dippin (g-mix)
TTITLE11=It Might Sound Crazy
TTITLE12=Slip-n-slide (dogg pound Rmx)
TTITLE13=Snoops Upside Ya Head (soopafly Rmx)
TTITLE14=Beware Of My Crew (DJ pooh Rmx)
TTITLE15=I Don´t Hang (g-mix)
TTITLE16=Regulate (jammin mix)
TTITLE17=Who Ride Wit Us (ride The Rmx)
EXTD=
EXTT0=
EXTT1=
EXTT2=
EXTT3=
EXTT4=
EXTT5=
EXTT6=
EXTT7=
EXTT8=
EXTT9=
EXTT10=
EXTT11=
EXTT12=
EXTT13=
EXTT14=
EXTT15=
EXTT16=
EXTT17=
PLAYORDER=
